<?xml version="1.0" encoding="UTF-8" standalone="no"?>
<!-- Created with Inkscape (http://www.inkscape.org/) -->

<svg
   width="297mm"
   height="210mm"
   viewBox="0 0 1122.5197 793.70081"
   version="1.1"
   id="svg5"
   inkscape:version="1.2.2 (b0a84865, 2022-12-01)"
   sodipodi:docname="8.4.svg"
   xml:space="preserve"
   xmlns:inkscape="http://www.inkscape.org/namespaces/inkscape"
   xmlns:sodipodi="http://sodipodi.sourceforge.net/DTD/sodipodi-0.dtd"
   xmlns="http://www.w3.org/2000/svg"
   xmlns:svg="http://www.w3.org/2000/svg"><sodipodi:namedview
     id="namedview7"
     pagecolor="#ffffff"
     bordercolor="#000000"
     borderopacity="0.25"
     inkscape:showpageshadow="2"
     inkscape:pageopacity="0.0"
     inkscape:pagecheckerboard="0"
     inkscape:deskcolor="#d1d1d1"
     inkscape:document-units="mm"
     showgrid="false"
     inkscape:zoom="0.75915513"
     inkscape:cx="604.61951"
     inkscape:cy="408.34869"
     inkscape:window-width="1470"
     inkscape:window-height="818"
     inkscape:window-x="0"
     inkscape:window-y="37"
     inkscape:window-maximized="0"
     inkscape:current-layer="svg5"
     showguides="false"><inkscape:grid
       type="xygrid"
       id="grid950" /></sodipodi:namedview><defs
     id="defs2"><rect
       x="125.47582"
       y="268.42297"
       width="149.30035"
       height="174.71317"
       id="rect9582" /></defs><g
     inkscape:groupmode="layer"
     id="layer16"
     inkscape:label="elements"
     sodipodi:insensitive="true"><g
       id="g987"
       transform="translate(0,-4)"><rect
         style="fill:#7189f8;fill-opacity:1;stroke-width:0.31507"
         id="rect5434-9-8-0-4-4"
         width="91.865303"
         height="4.0194082"
         x="630.70337"
         y="618.82904" /><path
         style="fill:#7189f8;fill-opacity:1;stroke-width:0.116307"
         d="m 728.96798,622.32286 c 1.41246,-1.97458 -0.54769,-3.09879 -0.54769,-3.09879 l -7.4659,-5.5778 c 0,0 -0.43049,-0.37077 -1.07616,-0.40246 -0.64569,-0.0317 -1.45378,0.17034 -1.89744,1.1448 -0.44365,0.97446 0.0356,1.68353 0.0356,1.68353 0,0 0.25748,0.43969 0.64569,0.74075 0.3882,0.30105 1.43793,1.07746 1.43793,1.07746 l 1.01804,0.77244 0.41593,0.3169 0.004,1.32305 v 1.99647 l 0.0119,0.70114 -2.73722,2.0638 c 0,0 -0.92646,0.60935 -1.00896,1.62291 -0.0825,1.01357 0.71123,1.80668 1.32632,1.98242 0.61507,0.17573 1.25212,0.0439 1.50474,-0.0934 0.25262,-0.13729 1.21368,-0.8677 1.21368,-0.8677 l 2.16925,-1.64753 1.77933,-1.33451 2.57565,-1.94408 z"
         id="path2400-03-2-3-0" /></g><g
       id="g999"
       transform="translate(0,-4)"><rect
         style="fill:#33c695;fill-opacity:1;stroke-width:0.149866"
         id="rect5434-9-8-0-4-4-1-1"
         width="20.784658"
         height="4.0194082"
         x="373.42496"
         y="-557.29858"
         transform="rotate(89.154893)" /><path
         style="fill:#33c695;fill-opacity:1;stroke-width:0.116307"
         d="m 559.65324,392.39706 c 1.99519,1.38318 3.09037,-0.59334 3.09037,-0.59334 l 5.46708,-7.54735 c 0,0 0.36438,-0.43592 0.38654,-1.08198 0.0222,-0.64609 -0.19176,-1.45111 -1.17266,-1.88035 -0.9809,-0.42923 -1.68282,0.0604 -1.68282,0.0604 0,0 -0.43585,0.26393 -0.73115,0.65654 -0.29529,0.3926 -1.05613,1.45367 -1.05613,1.45367 l -0.75734,1.02932 -0.31074,0.42056 -1.32284,0.0235 -1.99626,0.0294 -0.70088,0.0222 -2.10395,-2.70648 c 0,0 -0.62295,-0.91738 -1.63762,-0.98492 -1.01467,-0.0675 -1.79599,0.7378 -1.96264,1.35542 -0.16664,0.61759 -0.0254,1.25263 0.11559,1.5032 0.141,0.25056 0.8855,1.20075 0.8855,1.20075 l 1.67935,2.14471 1.36061,1.75945 1.98185,2.5467 z"
         id="path2400-03-2-3-9-0-0" /></g><g
       id="g995"
       transform="translate(-2,4)"><rect
         style="fill:#33c695;fill-opacity:1;stroke-width:0.242015"
         id="rect5434-9-8-0-4-4-2"
         width="54.202682"
         height="4.0194082"
         x="13.685902"
         y="-525.00311"
         transform="rotate(132.96344)" /><path
         style="fill:#33c695;fill-opacity:1;stroke-width:0.116307"
         d="m 331.005,409.78802 c 0.48234,2.37936 2.64092,1.71113 2.64092,1.71113 l 9.17002,-1.66201 c 0,0 0.56472,-0.0623 1.02795,-0.51323 0.46326,-0.45091 0.86615,-1.17996 0.45542,-2.16875 -0.41074,-0.98878 -1.25625,-1.12132 -1.25625,-1.12132 0,0 -0.49724,-0.11124 -0.98213,-0.0323 -0.48488,0.0789 -1.76847,0.31794 -1.76847,0.31794 l -1.25909,0.21855 -0.51537,0.0884 -0.97092,-0.89877 -1.461,-1.36066 -0.52119,-0.46914 0.35523,-3.40961 c 0,0 0.1855,-1.09326 -0.49999,-1.84441 -0.68549,-0.75115 -1.80683,-0.71084 -2.35464,-0.3805 -0.54778,0.33034 -0.88548,0.88637 -0.95718,1.16481 -0.0717,0.27843 -0.19218,1.47952 -0.19218,1.47952 l -0.27277,2.71028 -0.23609,2.2116 -0.33273,3.20979 z"
         id="path2400-03-2-3-9-9" /></g><g
       id="g991"
       transform="translate(0,-4)"><rect
         style="fill:#7189f8;fill-opacity:1;stroke-width:0.31507"
         id="rect5434-9-8-0-4-8"
         width="91.865303"
         height="4.0194082"
         x="-309.41302"
         y="-621.90521"
         transform="scale(-1)" /><path
         style="fill:#7189f8;fill-opacity:1;stroke-width:0.116307"
         d="m 211.14843,618.41136 c -1.41246,1.97458 0.54769,3.09879 0.54769,3.09879 l 7.4659,5.5778 c 0,0 0.43049,0.37077 1.07616,0.40246 0.64569,0.0317 1.45378,-0.17034 1.89744,-1.1448 0.44365,-0.97446 -0.0356,-1.68353 -0.0356,-1.68353 0,0 -0.25748,-0.43969 -0.64568,-0.74075 -0.3882,-0.30105 -1.43794,-1.07746 -1.43794,-1.07746 l -1.01803,-0.77244 -0.41593,-0.3169 -0.004,-1.32305 v -1.99647 l -0.0119,-0.70114 2.73722,-2.0638 c 0,0 0.92646,-0.60935 1.00896,-1.62291 0.0825,-1.01357 -0.71123,-1.80668 -1.32632,-1.98242 -0.61507,-0.17573 -1.25212,-0.0439 -1.50474,0.0934 -0.25262,0.13729 -1.21368,0.8677 -1.21368,0.8677 l -2.16925,1.64753 -1.77933,1.33451 -2.57565,1.94408 z"
         id="path2400-03-2-3-2" /></g><g
       id="g2859"
       transform="translate(0,-3.9999999)"><rect
         style="display:inline;fill:#000000;fill-opacity:1;stroke-width:0.218848"
         id="rect5434-9-9-7-0-0-8-6-7"
         width="58.918785"
         height="3.023622"
         x="-169.8541"
         y="-622.08057"
         transform="scale(-1)" /><rect
         style="display:inline;fill:#000000;fill-opacity:1;stroke-width:0.218848"
         id="rect5434-9-9-7-0-0-8-6-7-2"
         width="58.918785"
         height="3.023622"
         x="-229.52838"
         y="-561.72827"
         transform="scale(-1)" /><rect
         style="display:inline;fill:#000000;fill-opacity:1;stroke-width:0.227036"
         id="rect5434-9-9-7-0-0-8-6-7-2-0"
         width="63.410183"
         height="3.023622"
         x="558.75153"
         y="-171.6938"
         transform="rotate(90)" /><rect
         style="display:inline;fill:#000000;fill-opacity:1;stroke-width:0.22667"
         id="rect5434-9-9-7-0-0-8-6-7-2-0-9"
         width="63.206028"
         height="3.023622"
         x="498.4841"
         y="-231.38974"
         transform="rotate(90)" /><rect
         style="display:inline;fill:#000000;fill-opacity:1;stroke-width:0.218848"
         id="rect5434-9-9-7-0-0-8-6-7-1"
         width="58.918785"
         height="3.023622"
         x="-289.38956"
         y="-501.48682"
         transform="scale(-1)" /><rect
         style="display:inline;fill:#000000;fill-opacity:1;stroke-width:0.218848"
         id="rect5434-9-9-7-0-0-8-6-7-8"
         width="58.918785"
         height="3.023622"
         x="-349.75586"
         y="-441.12048"
         transform="scale(-1)" /><rect
         style="display:inline;fill:#000000;fill-opacity:1;stroke-width:0.218848"
         id="rect5434-9-9-7-0-0-8-6-7-7"
         width="58.918785"
         height="3.023622"
         x="-409.41196"
         y="-532.02502"
         transform="scale(-1)" /><rect
         style="display:inline;fill:#000000;fill-opacity:1;stroke-width:0.218848"
         id="rect5434-9-9-7-0-0-8-6-7-15"
         width="58.918785"
         height="3.023622"
         x="-468.95007"
         y="-562.05981"
         transform="scale(-1)" /><rect
         style="display:inline;fill:#000000;fill-opacity:1;stroke-width:0.218848"
         id="rect5434-9-9-7-0-0-8-6-7-5"
         width="58.918785"
         height="3.023622"
         x="-528.6015"
         y="-470.82822"
         transform="scale(-1)" /><rect
         style="display:inline;fill:#000000;fill-opacity:1;stroke-width:0.218848"
         id="rect5434-9-9-7-0-0-8-6-7-85"
         width="58.918785"
         height="3.023622"
         x="-588.25293"
         y="-411.17676"
         transform="scale(-1)" /><rect
         style="display:inline;fill:#000000;fill-opacity:1;stroke-width:0.218848"
         id="rect5434-9-9-7-0-0-8-6-7-6"
         width="58.918785"
         height="3.023622"
         x="-648.78162"
         y="-441.8797"
         transform="scale(-1)" /><rect
         style="display:inline;fill:#000000;fill-opacity:1;stroke-width:0.218848"
         id="rect5434-9-9-7-0-0-8-6-7-79"
         width="58.918785"
         height="3.023622"
         x="-709.31024"
         y="-531.35687"
         transform="scale(-1)" /><rect
         style="display:inline;fill:#000000;fill-opacity:1;stroke-width:0.218848"
         id="rect5434-9-9-7-0-0-8-6-7-4"
         width="58.918785"
         height="3.023622"
         x="-768.96173"
         y="-591.00824"
         transform="scale(-1)" /><rect
         style="display:inline;fill:#000000;fill-opacity:1;stroke-width:0.218848"
         id="rect5434-9-9-7-0-0-8-6-7-4-3"
         width="58.918785"
         height="3.023622"
         x="-827.4856"
         y="-621.46356"
         transform="scale(-1)" /><rect
         style="display:inline;fill:#000000;fill-opacity:1;stroke-width:0.227036"
         id="rect5434-9-9-7-0-0-8-6-7-2-0-7"
         width="63.410183"
         height="3.023622"
         x="438.05429"
         y="-291.6153"
         transform="rotate(90)" /><rect
         style="display:inline;fill:#000000;fill-opacity:1;stroke-width:0.276475"
         id="rect5434-9-9-7-0-0-8-6-7-2-0-5"
         width="94.033356"
         height="3.023622"
         x="438.05432"
         y="-351.43256"
         transform="rotate(90)" /><rect
         style="display:inline;fill:#000000;fill-opacity:1;stroke-width:0.164268"
         id="rect5434-9-9-7-0-0-8-6-7-2-0-3"
         width="33.195324"
         height="3.023622"
         x="528.90308"
         y="-411.45398"
         transform="rotate(90)" /><rect
         style="display:inline;fill:#000000;fill-opacity:1;stroke-width:0.276775"
         id="rect5434-9-9-7-0-0-8-6-7-2-0-90"
         width="94.237511"
         height="3.023622"
         x="467.86087"
         y="-471.47537"
         transform="rotate(90)" /><rect
         style="display:inline;fill:#000000;fill-opacity:1;stroke-width:0.225756"
         id="rect5434-9-9-7-0-0-8-6-7-2-0-2"
         width="62.697292"
         height="3.023622"
         x="408.19641"
         y="-531.49951"
         transform="rotate(90)" /><rect
         style="display:inline;fill:#000000;fill-opacity:1;stroke-width:0.16582"
         id="rect5434-9-9-7-0-0-8-6-7-2-0-6"
         width="33.82518"
         height="3.023622"
         x="408.14908"
         y="-591.25146"
         transform="rotate(90)" /><rect
         style="display:inline;fill:#000000;fill-opacity:1;stroke-width:0.274417"
         id="rect5434-9-9-7-0-0-8-6-7-2-0-8"
         width="92.638741"
         height="3.023622"
         x="438.80344"
         y="-651.49078"
         transform="rotate(90)" /><rect
         style="display:inline;fill:#000000;fill-opacity:1;stroke-width:0.226077"
         id="rect5434-9-9-7-0-0-8-6-7-2-0-91"
         width="62.875515"
         height="3.023622"
         x="528.2713"
         y="-711.37372"
         transform="rotate(90)" /><rect
         style="display:inline;fill:#000000;fill-opacity:1;stroke-width:0.161603"
         id="rect5434-9-9-7-0-0-8-6-7-2-0-71"
         width="32.126835"
         height="3.023622"
         x="587.91956"
         y="-771.72522"
         transform="rotate(90)" /></g><g
       id="g924"
       transform="translate(0,-3.9999999)"><path
         style="fill:#000000;fill-opacity:1;stroke-width:0.157193"
         d="m 846.64848,679.86032 c 1.94478,-2.61962 -0.75411,-4.11108 -0.75411,-4.11108 l -10.27963,-7.39993 c 0,0 -0.59272,-0.49189 -1.48174,-0.53393 -0.88903,-0.0421 -2.00167,0.22597 -2.61253,1.51877 -0.61086,1.2928 0.0491,2.2335 0.0491,2.2335 0,0 0.35452,0.58334 0.88903,0.98273 0.53451,0.39941 1.97985,1.42944 1.97985,1.42944 l 1.40172,1.02479 0.57268,0.42041 0.005,1.75527 v 2.64866 l 0.0164,0.93019 -3.76881,2.738 c 0,0 -1.27563,0.8084 -1.38922,2.15307 -0.11359,1.34468 0.97928,2.39686 1.82617,2.63002 0.84689,0.23315 1.72402,0.0583 2.07185,-0.12386 0.34783,-0.18215 1.67109,-1.15115 1.67109,-1.15115 l 2.98679,-2.18574 2.44993,-1.77045 3.54635,-2.57918 z"
         id="path2400" /><path
         style="fill:#000000;fill-opacity:1;stroke-width:0.157193"
         d="m 110.31873,186.76383 c -2.62371,-1.93927 -4.10949,0.76275 -4.10949,0.76275 l -7.378287,10.29518 c 0,0 -0.490642,0.59375 -0.530812,1.48286 -0.04023,0.88911 0.23018,2.00119 1.524261,2.60933 1.294078,0.60813 2.233388,-0.0538 2.233388,-0.0538 0,0 0.58259,-0.35575 0.98086,-0.8911 0.39828,-0.53535 1.42527,-1.98285 1.42527,-1.98285 l 1.02184,-1.40387 0.41921,-0.57357 1.75525,-0.009 2.64866,-0.006 0.93015,-0.0184 2.74592,3.76305 c 0,0 0.81108,1.27392 2.15599,1.38469 1.34492,0.11076 2.3948,-0.98432 2.62617,-1.8317 0.23137,-0.84738 0.0547,-1.72414 -0.12821,-2.07159 -0.18289,-0.34744 -1.15467,-1.66866 -1.15467,-1.66866 l -2.19201,-2.98219 -1.7756,-2.4462 -2.58664,-3.54092 z"
         id="path2400-7" /><rect
         style="fill:#000000;fill-opacity:1;stroke-width:0.832527"
         id="rect5434-9-9"
         width="483.47131"
         height="5.3324442"
         x="-680.25635"
         y="106.01752"
         transform="matrix(3.3484338e-4,-0.9999999,0.99999953,9.2383456e-4,0,0)" /><rect
         style="fill:#000000;fill-opacity:1;stroke-width:1.02557"
         id="rect5434-9-9-0"
         width="731.35535"
         height="5.3492193"
         x="107.21352"
         y="675.02722"
         transform="matrix(0.99999991,4.1791587e-4,-0.00183852,0.99999831,0,0)" /></g></g><g
     inkscape:groupmode="layer"
     id="layer18"
     inkscape:label="text 19"
     sodipodi:insensitive="true"><text
       xml:space="preserve"
       style="font-style:normal;font-variant:normal;font-weight:bold;font-stretch:normal;font-size:25.3333px;font-family:'Source Sans Pro';-inkscape-font-specification:'Source Sans Pro, Bold';font-variant-ligatures:normal;font-variant-caps:normal;font-variant-numeric:normal;font-variant-east-asian:normal;text-align:start;text-anchor:start;display:inline;fill:#000000;fill-opacity:1"
       x="863.64417"
       y="681.41589"
       id="text3484-8-7-3-1-9"><tspan
         sodipodi:role="line"
         x="863.64417"
         y="681.41589"
         style="font-style:normal;font-variant:normal;font-weight:bold;font-stretch:normal;font-size:25.3333px;font-family:'Source Sans Pro';-inkscape-font-specification:'Source Sans Pro, Bold';font-variant-ligatures:normal;font-variant-caps:normal;font-variant-numeric:normal;font-variant-east-asian:normal;text-align:start;text-anchor:start;fill:#000000;fill-opacity:1"
         id="tspan14075-6-8-2">t (Perioden)</tspan></text><text
       xml:space="preserve"
       style="font-style:normal;font-variant:normal;font-weight:bold;font-stretch:normal;font-size:25.3333px;font-family:'Source Sans Pro';-inkscape-font-specification:'Source Sans Pro, Bold';font-variant-ligatures:normal;font-variant-caps:normal;font-variant-numeric:normal;font-variant-east-asian:normal;text-align:start;text-anchor:start;display:inline;fill:#000000;fill-opacity:1"
       x="70.245621"
       y="159.0452"
       id="text3484-8-7-3-1-9-3"><tspan
         sodipodi:role="line"
         x="70.245621"
         y="159.0452"
         style="font-style:normal;font-variant:normal;font-weight:bold;font-stretch:normal;font-size:25.3333px;font-family:'Source Sans Pro';-inkscape-font-specification:'Source Sans Pro, Bold';font-variant-ligatures:normal;font-variant-caps:normal;font-variant-numeric:normal;font-variant-east-asian:normal;text-align:start;text-anchor:start;fill:#000000;fill-opacity:1"
         id="tspan14075-6-8-2-0">KB<tspan
   style="font-style:normal;font-variant:normal;font-weight:bold;font-stretch:normal;font-size:25.3333px;font-family:'Source Sans Pro';-inkscape-font-specification:'Source Sans Pro, Bold';font-variant-ligatures:normal;font-variant-caps:normal;font-variant-numeric:normal;font-variant-east-asian:normal;baseline-shift:sub"
   id="tspan583">t</tspan> (€)</tspan></text><text
       xml:space="preserve"
       style="font-style:normal;font-variant:normal;font-weight:normal;font-stretch:normal;font-size:20px;font-family:Arial;-inkscape-font-specification:'Arial, Normal';font-variant-ligatures:normal;font-variant-caps:normal;font-variant-numeric:normal;font-variant-east-asian:normal;text-align:center;text-anchor:middle;fill:#000000;fill-opacity:1"
       x="469.64749"
       y="318.49298"
       id="text3484-6"><tspan
         sodipodi:role="line"
         x="469.64749"
         y="318.49298"
         style="font-style:normal;font-variant:normal;font-weight:bold;font-stretch:normal;font-size:25.3333px;font-family:'Source Sans Pro';-inkscape-font-specification:'Source Sans Pro, Bold';font-variant-ligatures:normal;font-variant-caps:normal;font-variant-numeric:normal;font-variant-east-asian:normal;text-align:center;text-anchor:middle;fill:#1e5b47;fill-opacity:1"
         id="tspan7061">Spitzenbedarf</tspan><tspan
         sodipodi:role="line"
         x="469.64749"
         y="346.00806"
         style="font-style:normal;font-variant:normal;font-weight:normal;font-stretch:normal;font-size:20px;font-family:'Source Sans Pro';-inkscape-font-specification:'Source Sans Pro, Normal';font-variant-ligatures:normal;font-variant-caps:normal;font-variant-numeric:normal;font-variant-east-asian:normal;text-align:center;text-anchor:middle;fill:#1e5b47;fill-opacity:1"
         id="tspan7067">(grds. kurzfristige Finanzierung)</tspan></text><text
       xml:space="preserve"
       style="font-style:normal;font-variant:normal;font-weight:normal;font-stretch:normal;font-size:20px;font-family:Arial;-inkscape-font-specification:'Arial, Normal';font-variant-ligatures:normal;font-variant-caps:normal;font-variant-numeric:normal;font-variant-east-asian:normal;text-align:center;text-anchor:middle;fill:#000000;fill-opacity:1"
       x="469.64749"
       y="607.58759"
       id="text3484-6-5"><tspan
         sodipodi:role="line"
         x="469.64749"
         y="607.58759"
         style="font-style:normal;font-variant:normal;font-weight:bold;font-stretch:normal;font-size:25.3333px;font-family:'Source Sans Pro';-inkscape-font-specification:'Source Sans Pro, Bold';font-variant-ligatures:normal;font-variant-caps:normal;font-variant-numeric:normal;font-variant-east-asian:normal;text-align:center;text-anchor:middle;fill:#051a7b;fill-opacity:1"
         id="tspan7061-3">Sockelbedarf</tspan><tspan
         sodipodi:role="line"
         x="469.64749"
         y="635.10266"
         style="font-style:normal;font-variant:normal;font-weight:normal;font-stretch:normal;font-size:20px;font-family:'Source Sans Pro';-inkscape-font-specification:'Source Sans Pro, Normal';font-variant-ligatures:normal;font-variant-caps:normal;font-variant-numeric:normal;font-variant-east-asian:normal;text-align:center;text-anchor:middle;fill:#051a7b;fill-opacity:1"
         id="tspan7067-2">(grds. langfristige Finanzierung)</tspan></text></g><g
     inkscape:groupmode="layer"
     id="layer5"
     inkscape:label="headline 23"
     style="display:inline"
     sodipodi:insensitive="true"><text
       xml:space="preserve"
       style="font-style:normal;font-variant:normal;font-weight:bold;font-stretch:normal;font-size:30.6667px;font-family:'Source Sans Pro';-inkscape-font-specification:'Source Sans Pro, Bold';font-variant-ligatures:normal;font-variant-caps:normal;font-variant-numeric:normal;font-variant-east-asian:normal;display:inline;fill:#000000"
       x="69.834946"
       y="78.451683"
       id="text790"
       inkscape:label="headline"><tspan
         id="tspan788"
         x="69.834946"
         y="78.451683"
         sodipodi:role="line">Kapitalbedarf – optimale Deckung</tspan></text></g></svg>
