<?xml version="1.0" encoding="UTF-8" standalone="no"?>
<!-- Created with Inkscape (http://www.inkscape.org/) -->

<svg
   width="297mm"
   height="210mm"
   viewBox="0 0 1122.5197 793.70081"
   version="1.1"
   id="svg5"
   inkscape:version="1.2.2 (b0a84865, 2022-12-01)"
   sodipodi:docname="9.1.svg"
   xml:space="preserve"
   xmlns:inkscape="http://www.inkscape.org/namespaces/inkscape"
   xmlns:sodipodi="http://sodipodi.sourceforge.net/DTD/sodipodi-0.dtd"
   xmlns="http://www.w3.org/2000/svg"
   xmlns:svg="http://www.w3.org/2000/svg"><sodipodi:namedview
     id="namedview7"
     pagecolor="#ffffff"
     bordercolor="#000000"
     borderopacity="0.25"
     inkscape:showpageshadow="2"
     inkscape:pageopacity="0.0"
     inkscape:pagecheckerboard="0"
     inkscape:deskcolor="#d1d1d1"
     inkscape:document-units="mm"
     showgrid="true"
     inkscape:zoom="0.62425045"
     inkscape:cx="629.55501"
     inkscape:cy="398.87837"
     inkscape:window-width="1470"
     inkscape:window-height="818"
     inkscape:window-x="0"
     inkscape:window-y="37"
     inkscape:window-maximized="0"
     inkscape:current-layer="layer8"
     showguides="false"><inkscape:grid
       type="xygrid"
       id="grid950" /></sodipodi:namedview><defs
     id="defs2"><rect
       x="125.47582"
       y="268.42297"
       width="149.30035"
       height="174.71317"
       id="rect9582" /></defs><g
     inkscape:groupmode="layer"
     id="layer8"
     inkscape:label="elements"
     sodipodi:insensitive="true"><rect
       style="fill:#000000;fill-opacity:1;stroke-width:0.164603"
       id="rect5434-9-8-4-7"
       width="5.3329134"
       height="18.897638"
       x="109.8704"
       y="678.44952" /><rect
       style="fill:#000000;fill-opacity:1;stroke-width:0.164603"
       id="rect5434-9-8-4-05-1"
       width="5.3329134"
       height="18.897638"
       x="-690.56476"
       y="103.08804"
       transform="rotate(-90)" /><g
       id="g1778"
       transform="translate(4)"><path
         style="fill:#000000;fill-opacity:1;stroke-width:0.157193"
         d="m 840.64848,689.86032 c 1.94478,-2.61962 -0.75411,-4.11108 -0.75411,-4.11108 l -10.27963,-7.39993 c 0,0 -0.59272,-0.49189 -1.48174,-0.53393 -0.88903,-0.0421 -2.00167,0.22597 -2.61253,1.51877 -0.61086,1.2928 0.0491,2.2335 0.0491,2.2335 0,0 0.35452,0.58334 0.88903,0.98273 0.53451,0.39941 1.97985,1.42944 1.97985,1.42944 l 1.40172,1.02479 0.57268,0.42041 0.005,1.75527 v 2.64866 l 0.0164,0.93019 -3.76881,2.738 c 0,0 -1.27563,0.8084 -1.38922,2.15307 -0.11359,1.34468 0.97928,2.39686 1.82617,2.63002 0.84689,0.23315 1.72402,0.0583 2.07185,-0.12386 0.34783,-0.18215 1.67109,-1.15115 1.67109,-1.15115 l 2.98679,-2.18574 2.44993,-1.77045 3.54635,-2.57918 z"
         id="path2400" /><path
         style="fill:#000000;fill-opacity:1;stroke-width:0.157193"
         d="m 110.31873,196.76383 c -2.62371,-1.93927 -4.10949,0.76275 -4.10949,0.76275 l -7.378287,10.29518 c 0,0 -0.490642,0.59375 -0.530812,1.48286 -0.04023,0.88911 0.23018,2.00119 1.524261,2.60933 1.294078,0.60813 2.233388,-0.0538 2.233388,-0.0538 0,0 0.58259,-0.35575 0.98086,-0.8911 0.39828,-0.53535 1.42527,-1.98285 1.42527,-1.98285 l 1.02184,-1.40387 0.41921,-0.57357 1.75525,-0.009 2.64866,-0.006 0.93015,-0.0184 2.74592,3.76305 c 0,0 0.81108,1.27392 2.15599,1.38469 1.34492,0.11076 2.3948,-0.98432 2.62617,-1.8317 0.23137,-0.84738 0.0547,-1.72414 -0.12821,-2.07159 -0.18289,-0.34744 -1.15467,-1.66866 -1.15467,-1.66866 l -2.19201,-2.98219 -1.7756,-2.4462 -2.58664,-3.54092 z"
         id="path2400-7" /><rect
         style="fill:#000000;fill-opacity:1;stroke-width:0.832527"
         id="rect5434-9-9"
         width="483.47128"
         height="5.3324442"
         x="-690.25635"
         y="106.02087"
         transform="matrix(3.3484339e-4,-0.99999994,0.99999957,9.238346e-4,0,0)" /><rect
         style="fill:#000000;fill-opacity:1;stroke-width:1.02252"
         id="rect5434-9-9-0"
         width="727.02051"
         height="5.3492193"
         x="104.79166"
         y="685.02795"
         transform="matrix(0.99999991,4.2040768e-4,-0.00182763,0.99999833,0,0)" /></g><path
       style="fill:#000000;stroke:#000000;stroke-width:3.84123;stroke-dasharray:none;stroke-opacity:1"
       d="M 114.40538,534.57319 641.35788,414.56244"
       id="path449" /><g
       id="g1783"
       transform="translate(3.9999999)"><rect
         style="fill:#8b8b8b;fill-opacity:1;stroke-width:0.347978"
         id="rect5434-9-8-0-4"
         width="112.05741"
         height="4.0194082"
         x="-665.23303"
         y="129.44724"
         transform="rotate(-90)" /><path
         style="fill:#8b8b8b;fill-opacity:1;stroke-width:0.116307"
         d="m 130.07465,671.92946 c 1.97458,1.41247 3.09879,-0.54768 3.09879,-0.54768 l 5.5778,-7.46591 c 0,0 0.37077,-0.43047 0.40247,-1.07615 0.0317,-0.64569 -0.17034,-1.45378 -1.1448,-1.89744 -0.97447,-0.44366 -1.68353,0.0356 -1.68353,0.0356 0,0 -0.4397,0.25748 -0.74076,0.64568 -0.30105,0.38821 -1.07745,1.43794 -1.07745,1.43794 l -0.77245,1.01803 -0.3169,0.41593 -1.32305,0.004 h -1.99647 l -0.70114,0.0119 -2.0638,-2.73721 c 0,0 -0.60935,-0.92647 -1.62291,-1.00896 -1.01357,-0.0825 -1.80667,0.71123 -1.98242,1.32631 -0.17573,0.61507 -0.0439,1.25212 0.0934,1.50474 0.13729,0.25263 0.86769,1.21369 0.86769,1.21369 l 1.64754,2.16925 1.33449,1.77933 1.94409,2.57565 z"
         id="path2400-03-9-7-7" /><path
         style="fill:#8b8b8b;fill-opacity:1;stroke-width:0.116307"
         d="m 132.94104,546.77627 c -1.97458,-1.41246 -3.09879,0.54769 -3.09879,0.54769 l -5.5778,7.4659 c 0,0 -0.37077,0.43049 -0.40246,1.07616 -0.0317,0.64569 0.17034,1.45378 1.1448,1.89744 0.97446,0.44365 1.68353,-0.0356 1.68353,-0.0356 0,0 0.43969,-0.25748 0.74075,-0.64569 0.30105,-0.3882 1.07746,-1.43793 1.07746,-1.43793 l 0.77244,-1.01804 0.3169,-0.41593 1.32305,-0.004 h 1.99647 l 0.70114,-0.0119 2.0638,2.73722 c 0,0 0.60935,0.92646 1.62291,1.00896 1.01357,0.0825 1.80668,-0.71123 1.98242,-1.32632 0.17573,-0.61507 0.0439,-1.25212 -0.0934,-1.50474 -0.13729,-0.25262 -0.8677,-1.21368 -0.8677,-1.21368 l -1.64753,-2.16925 -1.33451,-1.77933 -1.94408,-2.57565 z"
         id="path2400-03-2-3" /></g></g><g
     inkscape:groupmode="layer"
     id="layer18"
     inkscape:label="text 19"
     sodipodi:insensitive="true"><text
       xml:space="preserve"
       style="font-style:normal;font-variant:normal;font-weight:bold;font-stretch:normal;font-size:25.3333px;font-family:'Source Sans Pro';-inkscape-font-specification:'Source Sans Pro, Bold';font-variant-ligatures:normal;font-variant-caps:normal;font-variant-numeric:normal;font-variant-east-asian:normal;text-align:start;text-anchor:start;display:inline;fill:#000000;fill-opacity:1"
       x="861.64417"
       y="695.41589"
       id="text3484-8-7-3-1-9"><tspan
         sodipodi:role="line"
         x="861.64417"
         y="695.41589"
         style="font-style:normal;font-variant:normal;font-weight:bold;font-stretch:normal;font-size:25.3333px;font-family:'Source Sans Pro';-inkscape-font-specification:'Source Sans Pro, Bold';font-variant-ligatures:normal;font-variant-caps:normal;font-variant-numeric:normal;font-variant-east-asian:normal;text-align:start;text-anchor:start;fill:#000000;fill-opacity:1"
         id="tspan14075-6-8-2">FK / EK</tspan></text><text
       xml:space="preserve"
       style="font-style:normal;font-variant:normal;font-weight:bold;font-stretch:normal;font-size:25.3333px;font-family:'Source Sans Pro';-inkscape-font-specification:'Source Sans Pro, Bold';font-variant-ligatures:normal;font-variant-caps:normal;font-variant-numeric:normal;font-variant-east-asian:normal;text-align:start;text-anchor:start;display:inline;fill:#000000;fill-opacity:1"
       x="78.340752"
       y="175.0452"
       id="text3484-8-7-3-1-9-3"><tspan
         sodipodi:role="line"
         x="78.340752"
         y="175.0452"
         style="font-style:normal;font-variant:normal;font-weight:bold;font-stretch:normal;font-size:25.3333px;font-family:'Source Sans Pro';-inkscape-font-specification:'Source Sans Pro, Bold';font-variant-ligatures:normal;font-variant-caps:normal;font-variant-numeric:normal;font-variant-east-asian:normal;text-align:start;text-anchor:start;fill:#000000;fill-opacity:1"
         id="tspan14075-6-8-2-0">R<tspan
   style="font-size:65%;baseline-shift:sub"
   id="tspan573">e</tspan> (%)</tspan></text><text
       xml:space="preserve"
       style="font-style:normal;font-variant:normal;font-weight:bold;font-stretch:normal;font-size:25.3333px;line-height:0;font-family:'Source Sans Pro';-inkscape-font-specification:'Source Sans Pro, Bold';font-variant-ligatures:normal;font-variant-caps:normal;font-variant-numeric:normal;font-variant-east-asian:normal;text-align:start;text-anchor:start;fill:#000000;fill-opacity:1"
       x="152.83986"
       y="614.50708"
       id="text3484-8-7-3-1-0-3-5-5-6"><tspan
         sodipodi:role="line"
         x="152.83986"
         y="614.50708"
         style="font-style:normal;font-variant:normal;font-weight:bold;font-stretch:normal;font-size:25.3333px;line-height:0;font-family:'Source Sans Pro';-inkscape-font-specification:'Source Sans Pro, Bold';font-variant-ligatures:normal;font-variant-caps:normal;font-variant-numeric:normal;font-variant-east-asian:normal;text-align:start;text-anchor:start;fill:#8b8b8b;fill-opacity:1"
         id="tspan14075-6-8-0-9-5-8-2">r</tspan></text><g
       id="g1643"
       transform="translate(4,10)"><text
         xml:space="preserve"
         style="font-style:normal;font-variant:normal;font-weight:bold;font-stretch:normal;font-size:20px;line-height:0;font-family:'Source Sans Pro';-inkscape-font-specification:'Source Sans Pro, Bold';font-variant-ligatures:normal;font-variant-caps:normal;font-variant-numeric:normal;font-variant-east-asian:normal;text-align:start;text-anchor:start;fill:#000000;fill-opacity:1"
         x="654.1554"
         y="409.8237"
         id="text3484-8-7-3-1-0-3-5-5"><tspan
           sodipodi:role="line"
           x="654.1554"
           y="409.8237"
           style="font-style:normal;font-variant:normal;font-weight:bold;font-stretch:normal;font-size:20px;line-height:0;font-family:'Source Sans Pro';-inkscape-font-specification:'Source Sans Pro, Bold';font-variant-ligatures:normal;font-variant-caps:normal;font-variant-numeric:normal;font-variant-east-asian:normal;text-align:start;text-anchor:start;fill:#000000;fill-opacity:1"
           id="tspan14075-6-8-0-9-5-8">R<tspan
   style="font-size:65%;baseline-shift:sub"
   id="tspan678">e</tspan> = f  </tspan></text><g
         id="g1586"
         transform="translate(8.649978,-80.043175)"><text
           xml:space="preserve"
           style="font-style:normal;font-variant:normal;font-weight:normal;font-stretch:normal;font-size:33.3333px;line-height:0;font-family:'Source Sans Pro';-inkscape-font-specification:'Source Sans Pro, Normal';font-variant-ligatures:normal;font-variant-caps:normal;font-variant-numeric:normal;font-variant-east-asian:normal;text-align:start;text-anchor:start;fill:#000000;fill-opacity:1"
           x="693.10895"
           y="495.93488"
           id="text3484-8-7-3-1-0-3-5-5-5-0-1"><tspan
             sodipodi:role="line"
             x="693.10895"
             y="495.93488"
             style="font-style:normal;font-variant:normal;font-weight:normal;font-stretch:normal;font-size:33.3333px;line-height:0;font-family:'Source Sans Pro';-inkscape-font-specification:'Source Sans Pro, Normal';font-variant-ligatures:normal;font-variant-caps:normal;font-variant-numeric:normal;font-variant-east-asian:normal;text-align:start;text-anchor:start;fill:#000000;fill-opacity:1"
             id="tspan14075-6-8-0-9-5-8-8-3-8"><tspan
   style="font-style:normal;font-variant:normal;font-weight:normal;font-stretch:normal;font-size:40px;font-family:'Source Sans Pro';-inkscape-font-specification:'Source Sans Pro, Normal';font-variant-ligatures:normal;font-variant-caps:normal;font-variant-numeric:normal;font-variant-east-asian:normal"
   id="tspan1565">(    )</tspan> </tspan></text><g
           id="g1575"
           transform="translate(0.19651106,-18.665613)"><text
             xml:space="preserve"
             style="font-style:normal;font-variant:normal;font-weight:bold;font-stretch:normal;font-size:20px;line-height:0;font-family:'Source Sans Pro';-inkscape-font-specification:'Source Sans Pro, Bold';font-variant-ligatures:normal;font-variant-caps:normal;font-variant-numeric:normal;font-variant-east-asian:normal;text-align:start;text-anchor:start;fill:#000000;fill-opacity:1"
             x="710.41882"
             y="522.3465"
             id="text3484-8-7-3-1-0-3-5-5-5"><tspan
               sodipodi:role="line"
               x="710.41882"
               y="522.3465"
               style="font-style:normal;font-variant:normal;font-weight:bold;font-stretch:normal;font-size:20px;line-height:0;font-family:'Source Sans Pro';-inkscape-font-specification:'Source Sans Pro, Bold';font-variant-ligatures:normal;font-variant-caps:normal;font-variant-numeric:normal;font-variant-east-asian:normal;text-align:start;text-anchor:start;fill:#000000;fill-opacity:1"
               id="tspan14075-6-8-0-9-5-8-8">EK </tspan></text><text
             xml:space="preserve"
             style="font-style:normal;font-variant:normal;font-weight:bold;font-stretch:normal;font-size:20px;line-height:0;font-family:'Source Sans Pro';-inkscape-font-specification:'Source Sans Pro, Bold';font-variant-ligatures:normal;font-variant-caps:normal;font-variant-numeric:normal;font-variant-east-asian:normal;text-align:start;text-anchor:start;fill:#000000;fill-opacity:1"
             x="710.46234"
             y="497.65448"
             id="text3484-8-7-3-1-0-3-5-5-5-0"><tspan
               sodipodi:role="line"
               x="710.46234"
               y="497.65448"
               style="font-style:normal;font-variant:normal;font-weight:bold;font-stretch:normal;font-size:20px;line-height:0;font-family:'Source Sans Pro';-inkscape-font-specification:'Source Sans Pro, Bold';font-variant-ligatures:normal;font-variant-caps:normal;font-variant-numeric:normal;font-variant-east-asian:normal;text-align:start;text-anchor:start;fill:#000000;fill-opacity:1"
               id="tspan14075-6-8-0-9-5-8-8-3">FK </tspan></text><path
             style="fill:#000000;stroke:#000000;stroke-width:1.4211;stroke-dasharray:none;stroke-opacity:1"
             d="m 709.60663,503.48049 h 26.13139"
             id="path842" /></g></g></g></g><g
     inkscape:groupmode="layer"
     id="layer5"
     inkscape:label="headline 23"
     style="display:inline"
     sodipodi:insensitive="true"><text
       xml:space="preserve"
       style="font-style:normal;font-variant:normal;font-weight:bold;font-stretch:normal;font-size:30.6667px;font-family:'Source Sans Pro';-inkscape-font-specification:'Source Sans Pro, Bold';font-variant-ligatures:normal;font-variant-caps:normal;font-variant-numeric:normal;font-variant-east-asian:normal;display:inline;fill:#000000"
       x="78.388977"
       y="98.860451"
       id="text790"
       inkscape:label="headline"><tspan
         id="tspan788"
         x="78.388977"
         y="98.860451"
         sodipodi:role="line">Eigenkapitalrentabilität in Abhängigkeit von der Kapitalstruktur (r &gt; i<tspan
   style="font-style:normal;font-variant:normal;font-weight:bold;font-stretch:normal;font-size:65%;font-family:'Source Sans Pro';-inkscape-font-specification:'Source Sans Pro, Bold';font-variant-ligatures:normal;font-variant-caps:normal;font-variant-numeric:normal;font-variant-east-asian:normal;baseline-shift:sub"
   id="tspan778">f</tspan>)</tspan></text></g></svg>
