<?xml version="1.0" encoding="UTF-8" standalone="no"?>
<!-- Created with Inkscape (http://www.inkscape.org/) -->

<svg
   width="297mm"
   height="210mm"
   viewBox="0 0 1122.5197 793.70081"
   version="1.1"
   id="svg5"
   inkscape:version="1.3 (0e150ed, 2023-07-21)"
   sodipodi:docname="02_01_01_Zins-_und_Zinsesrechnung.svg"
   xml:space="preserve"
   xmlns:inkscape="http://www.inkscape.org/namespaces/inkscape"
   xmlns:sodipodi="http://sodipodi.sourceforge.net/DTD/sodipodi-0.dtd"
   xmlns="http://www.w3.org/2000/svg"
   xmlns:svg="http://www.w3.org/2000/svg"><sodipodi:namedview
     id="namedview7"
     pagecolor="#ffffff"
     bordercolor="#000000"
     borderopacity="0.25"
     inkscape:showpageshadow="2"
     inkscape:pageopacity="0.0"
     inkscape:pagecheckerboard="0"
     inkscape:deskcolor="#d1d1d1"
     inkscape:document-units="mm"
     showgrid="false"
     inkscape:zoom="0.60367724"
     inkscape:cx="598.00167"
     inkscape:cy="388.45261"
     inkscape:window-width="1440"
     inkscape:window-height="794"
     inkscape:window-x="0"
     inkscape:window-y="25"
     inkscape:window-maximized="0"
     inkscape:current-layer="layer5"><inkscape:grid
       type="xygrid"
       id="grid950"
       originx="0"
       originy="0"
       spacingy="1"
       spacingx="1"
       units="mm"
       visible="false" /></sodipodi:namedview><defs
     id="defs2"><inkscape:path-effect
       effect="spiro"
       id="path-effect1041"
       is_visible="true"
       lpeversion="1" /><inkscape:path-effect
       effect="bspline"
       id="path-effect6352"
       is_visible="true"
       lpeversion="1"
       weight="33.333333"
       steps="2"
       helper_size="0"
       apply_no_weight="true"
       apply_with_weight="true"
       only_selected="false" /><inkscape:path-effect
       effect="bspline"
       id="path-effect6283"
       is_visible="true"
       lpeversion="1"
       weight="33.333333"
       steps="2"
       helper_size="0"
       apply_no_weight="true"
       apply_with_weight="true"
       only_selected="false" /><inkscape:path-effect
       effect="spiro"
       id="path-effect6117"
       is_visible="true"
       lpeversion="1" /><rect
       x="125.47582"
       y="268.42297"
       width="149.30035"
       height="174.71317"
       id="rect9582" /></defs><g
     inkscape:label="shapes"
     inkscape:groupmode="layer"
     id="layer1"
     sodipodi:insensitive="true"><rect
       style="fill:#33c695;fill-opacity:1;stroke-width:1.00364"
       id="rect1110-00-3"
       width="740.22235"
       height="98.845123"
       x="120.65602"
       y="161.07162"
       rx="30.236221"
       ry="30.236221" /><rect
       style="fill:#7189f8;fill-opacity:1;stroke-width:1.01917"
       id="rect1110-00"
       width="741.77893"
       height="101.71518"
       x="119.04945"
       y="579.41779"
       rx="30.236221"
       ry="30.236221" /></g><g
     inkscape:groupmode="layer"
     id="layer3"
     inkscape:label="elements"
     sodipodi:insensitive="true"><g
       id="g50237"
       style="display:inline;fill:#000000"
       transform="translate(43.999999,4)"><path
         style="fill:#000000;fill-opacity:1;stroke-width:0.157193"
         d="m 701.75863,421.24467 c 1.94478,-2.61962 -0.75411,-4.11108 -0.75411,-4.11108 l -10.27963,-7.39993 c 0,0 -0.59272,-0.49189 -1.48174,-0.53393 -0.88903,-0.0421 -2.00167,0.22597 -2.61253,1.51877 -0.61086,1.2928 0.0491,2.2335 0.0491,2.2335 0,0 0.35452,0.58334 0.88903,0.98273 0.53451,0.39941 1.97985,1.42944 1.97985,1.42944 l 1.40172,1.02479 0.57268,0.42041 0.005,1.75527 v 2.64866 l 0.0164,0.93019 -3.76881,2.738 c 0,0 -1.27563,0.8084 -1.38922,2.15307 -0.11359,1.34468 0.97928,2.39686 1.82617,2.63002 0.84689,0.23315 1.72402,0.0583 2.07185,-0.12386 0.34783,-0.18215 1.67109,-1.15115 1.67109,-1.15115 l 2.98679,-2.18574 2.44993,-1.77045 3.54635,-2.57918 z"
         id="path2400" /><rect
         style="fill:#000000;fill-opacity:1;stroke-width:0.892694"
         id="rect5434-9"
         width="555.87775"
         height="5.3324471"
         x="137.34195"
         y="416.79623" /><rect
         style="fill:#000000;fill-opacity:1;stroke-width:0.164603"
         id="rect5434-9-8"
         width="5.3329134"
         height="18.897638"
         x="136.92497"
         y="409.98993" /><rect
         style="fill:#000000;fill-opacity:1;stroke-width:0.164603"
         id="rect5434-9-8-4"
         width="5.3329134"
         height="18.897638"
         x="295.47556"
         y="409.98993" /><rect
         style="fill:#000000;fill-opacity:1;stroke-width:0.164603"
         id="rect5434-9-8-1"
         width="5.3329134"
         height="18.897638"
         x="612.57672"
         y="409.98993" /><rect
         style="fill:#000000;fill-opacity:1;stroke-width:0.164603"
         id="rect5434-9-8-9"
         width="5.3329134"
         height="18.897638"
         x="454.02615"
         y="409.98993" /></g><g
       id="g24510"
       transform="translate(1.0470477e-6,-23.999998)"
       style="display:inline"><path
         style="fill:#8b8b8b;fill-opacity:1;stroke-width:0.116307"
         d="m 182.31738,371.0994 c 1.97458,1.41247 3.09879,-0.54768 3.09879,-0.54768 l 5.5778,-7.46591 c 0,0 0.37077,-0.43048 0.40247,-1.07615 0.0317,-0.64569 -0.17034,-1.45378 -1.1448,-1.89744 -0.97447,-0.44366 -1.68353,0.0356 -1.68353,0.0356 0,0 -0.4397,0.25748 -0.74076,0.64568 -0.30105,0.38821 -1.07745,1.43794 -1.07745,1.43794 l -0.77245,1.01803 -0.3169,0.41593 -1.32305,0.004 h -1.99647 l -0.70114,0.0119 -2.0638,-2.73721 c 0,0 -0.60935,-0.92647 -1.62291,-1.00897 -1.01357,-0.0825 -1.80667,0.71124 -1.98242,1.32632 -0.17573,0.61507 -0.0439,1.25212 0.0934,1.50474 0.13729,0.25263 0.86769,1.21369 0.86769,1.21369 l 1.64754,2.16925 1.33449,1.77933 1.94409,2.57565 z"
         id="path2400-03-9-7-7" /><rect
         style="fill:#8b8b8b;fill-opacity:1;stroke-width:0.141793"
         id="rect5434-9-8-0-4"
         width="18.605665"
         height="4.0194082"
         x="-364.33221"
         y="181.68997"
         transform="rotate(-90)" /></g><g
       id="g50210"
       transform="translate(32.407179,3.9999999)"
       style="display:inline"><path
         style="fill:#8b8b8b;fill-opacity:1;stroke-width:0.116307"
         d="m 293.61314,303.44589 c 1.41681,-1.97147 -0.54086,-3.09999 -0.54086,-3.09999 l -7.45363,-5.5942 c 0,0 -0.42966,-0.37172 -1.07526,-0.40484 -0.64562,-0.0331 -1.45415,0.16715 -1.89995,1.14063 -0.44581,0.97349 0.0319,1.6836 0.0319,1.6836 0,0 0.25652,0.44027 0.64405,0.74218 0.38755,0.3019 1.43557,1.08061 1.43557,1.08061 l 1.01633,0.77469 0.41523,0.31781 0.001,1.32306 -0.004,1.99646 0.0104,0.70117 -2.74174,2.05777 c 0,0 -0.92781,0.60731 -1.01253,1.62069 -0.0847,1.01339 0.70726,1.80823 1.32195,1.98533 0.61469,0.17708 1.25202,0.0467 1.50494,-0.0901 0.25294,-0.13673 1.2156,-0.86502 1.2156,-0.86502 l 2.17287,-1.64276 1.78226,-1.33058 2.57992,-1.93842 z"
         id="path2400-03-9-7-7-8" /><rect
         style="fill:#8b8b8b;fill-opacity:1;stroke-width:0.145376;stroke-dasharray:none"
         id="rect5434-9-8-0-4-3"
         width="19.354897"
         height="4.0194006"
         x="-287.16669"
         y="-302.71994"
         transform="matrix(-0.99998914,-0.00466062,0.00103732,-0.99999946,0,0)" /></g><path
       style="display:inline;fill:none;fill-opacity:1;stroke:#7189f8;stroke-width:5.26339;stroke-dasharray:none;stroke-opacity:1"
       d="m 190.64978,478.57321 c 0,0 215.81469,132.73681 452.50311,6.43729"
       id="path12707-4-2" /><path
       style="display:inline;fill:#7189f8;fill-opacity:1;stroke-width:0.154301"
       d="m 652.19163,481.91526 c 0.40201,-3.19566 -2.59491,-3.27038 -2.59491,-3.27038 l -12.23257,-1.79679 c 0,0 -0.73627,-0.16136 -1.50981,0.20958 -0.7735,0.3705 -1.58895,1.1163 -1.49163,2.53345 0.0973,1.41714 1.10415,1.94206 1.10415,1.94206 0,0 0.57799,0.35058 1.22099,0.45687 0.64301,0.10634 2.358,0.34978 2.358,0.34978 l 1.67551,0.25885 0.68537,0.1073 0.83944,1.54153 1.26006,2.32972 0.45642,0.81067 -1.89157,4.13591 c 0,0 -0.69651,1.29579 -0.15308,2.53062 0.54345,1.23483 1.97024,1.65935 2.79892,1.47623 0.82866,-0.18313 1.48886,-0.739 1.69699,-1.05866 0.20813,-0.31966 0.86863,-1.77855 0.86863,-1.77855 l 1.49152,-3.29167 1.23408,-2.6803 1.77859,-3.89423 z"
       id="path2400-2-4-7" /><path
       style="display:inline;fill:#7189f8;fill-opacity:1;stroke-width:0.154301"
       d="m 490.90868,481.71423 c 0.40201,-3.19566 -2.59491,-3.27038 -2.59491,-3.27038 l -12.23257,-1.79679 c 0,0 -0.73627,-0.16136 -1.50981,0.20958 -0.7735,0.3705 -1.58895,1.1163 -1.49163,2.53345 0.0973,1.41714 1.10415,1.94206 1.10415,1.94206 0,0 0.57799,0.35058 1.22099,0.45687 0.64301,0.10634 2.358,0.34978 2.358,0.34978 l 1.67551,0.25885 0.68537,0.1073 0.83944,1.54153 1.26006,2.32972 0.45642,0.81067 -1.89157,4.13591 c 0,0 -0.69651,1.29579 -0.15308,2.53062 0.54345,1.23483 1.97024,1.65935 2.79892,1.47623 0.82866,-0.18313 1.48886,-0.739 1.69699,-1.05866 0.20813,-0.31966 0.86863,-1.77855 0.86863,-1.77855 l 1.49152,-3.29167 1.23408,-2.6803 1.77859,-3.89423 z"
       id="path2400-2-4-7-9" /><path
       style="display:inline;fill:none;fill-opacity:1;stroke:#7189f8;stroke-width:5.29512;stroke-dasharray:none;stroke-opacity:1"
       d="m 190.26876,478.96885 c 0,0 136.44274,79.09385 293.99209,4.70483"
       id="path21757-0-3"
       inkscape:label="path21757-0" /><path
       style="display:inline;fill:none;fill-opacity:1;stroke:#7189f8;stroke-width:5.29512;stroke-dasharray:none;stroke-opacity:1"
       d="m 189.6207,478.3446 c 0,0 58.91997,38.38034 136.17608,5.71542"
       id="path21755-2-7" /><g
       id="g2380"
       style="display:inline"><path
         style="display:inline;fill:#33c695;fill-opacity:1;stroke-width:0.154301"
         d="m 190.10134,388.53401 c -0.40723,3.19499 2.58956,3.27461 2.58956,3.27461 l 12.22962,1.81679 c 0,0 0.736,0.16256 1.51015,-0.20711 0.7741,-0.36924 1.59077,-1.11371 1.49577,-2.53101 -0.095,-1.4173 -1.10098,-1.94386 -1.10098,-1.94386 0,0 -0.57741,-0.35153 -1.22024,-0.45887 -0.64284,-0.10739 -2.35742,-0.35363 -2.35742,-0.35363 l -1.67509,-0.26159 -0.68519,-0.10842 -0.83692,-1.5429 -1.25625,-2.33178 -0.4551,-0.81141 1.89833,-4.13282 c 0,0 0.69863,-1.29465 0.15722,-2.53036 -0.54143,-1.23572 -1.96753,-1.66257 -2.7965,-1.48081 -0.82896,0.18178 -1.49007,0.73657 -1.69872,1.05589 -0.20866,0.31932 -0.87154,1.77713 -0.87154,1.77713 l -1.4969,3.28922 -1.23846,2.67828 -1.78495,3.89132 z"
         id="path2400-2-4" /><path
         style="fill:none;fill-opacity:1;stroke:#33c695;stroke-width:5.29512;stroke-dasharray:none;stroke-opacity:1"
         d="m 492.24674,391.52031 c 0,0 -136.31326,-79.31678 -293.98401,-5.18541"
         id="path21757-0"
         inkscape:label="path21757-0" /><g
         id="g2373"><path
           style="fill:none;fill-opacity:1;stroke:#33c695;stroke-width:5.26339;stroke-dasharray:none;stroke-opacity:1"
           d="m 651.86486,392.17687 c 0,0 -215.59742,-133.08942 -452.49198,-7.17697"
           id="path12707-4" /><path
           style="fill:none;fill-opacity:1;stroke:#33c695;stroke-width:5.29512;stroke-dasharray:none;stroke-opacity:1"
           d="m 334.89399,391.88734 c 0,0 -58.85715,-38.4766 -136.16655,-5.93802"
           id="path21755-2" /></g></g><path
       style="display:inline;fill:#7189f8;fill-opacity:1;stroke-width:0.154301"
       d="m 333.42901,481.3767 c 0.40201,-3.19566 -2.59491,-3.27038 -2.59491,-3.27038 l -12.23257,-1.79679 c 0,0 -0.73627,-0.16136 -1.50981,0.20958 -0.7735,0.3705 -1.58895,1.1163 -1.49163,2.53345 0.0973,1.41714 1.10415,1.94206 1.10415,1.94206 0,0 0.57799,0.35058 1.22099,0.45687 0.64301,0.10634 2.358,0.34978 2.358,0.34978 l 1.67551,0.25885 0.68537,0.1073 0.83944,1.54153 1.26006,2.32972 0.45642,0.81067 -1.89157,4.13591 c 0,0 -0.69651,1.29579 -0.15308,2.53062 0.54345,1.23483 1.97024,1.65935 2.79892,1.47623 0.82866,-0.18313 1.48886,-0.739 1.69699,-1.05866 0.20813,-0.31966 0.86863,-1.77855 0.86863,-1.77855 l 1.49152,-3.29167 1.23408,-2.6803 1.77859,-3.89423 z"
       id="path2400-2-4-7-2" /></g><g
     inkscape:groupmode="layer"
     id="layer13"
     inkscape:label="text 15"
     style="display:inline"
     sodipodi:insensitive="true"><text
       xml:space="preserve"
       style="font-style:normal;font-variant:normal;font-weight:bold;font-stretch:normal;font-size:20px;font-family:'Source Sans Pro';-inkscape-font-specification:'Source Sans Pro, Bold';font-variant-ligatures:normal;font-variant-caps:normal;font-variant-numeric:normal;font-variant-east-asian:normal;text-align:start;text-anchor:start;fill:#000000;fill-opacity:1"
       x="758.80676"
       y="428.33499"
       id="text3484-8-7-3-1"><tspan
         sodipodi:role="line"
         x="758.80676"
         y="428.33499"
         style="font-style:normal;font-variant:normal;font-weight:bold;font-stretch:normal;font-size:20px;font-family:'Source Sans Pro';-inkscape-font-specification:'Source Sans Pro, Bold';font-variant-ligatures:normal;font-variant-caps:normal;font-variant-numeric:normal;font-variant-east-asian:normal;text-align:start;text-anchor:start;fill:#000000;fill-opacity:1"
         id="tspan14075-6-8">t (Zeit)</tspan></text><text
       xml:space="preserve"
       style="font-style:normal;font-variant:normal;font-weight:bold;font-stretch:normal;font-size:20px;font-family:'Source Sans Pro';-inkscape-font-specification:'Source Sans Pro, Bold';font-variant-ligatures:normal;font-variant-caps:normal;font-variant-numeric:normal;font-variant-east-asian:normal;text-align:start;text-anchor:start;fill:#000000;fill-opacity:1"
       x="494.01733"
       y="455.72559"
       id="text3484-8-7-3-1-9-2-2"><tspan
         sodipodi:role="line"
         x="494.01733"
         y="455.72559"
         style="font-style:normal;font-variant:normal;font-weight:bold;font-stretch:normal;font-size:20px;font-family:'Source Sans Pro';-inkscape-font-specification:'Source Sans Pro, Bold';font-variant-ligatures:normal;font-variant-caps:normal;font-variant-numeric:normal;font-variant-east-asian:normal;text-align:start;text-anchor:start;fill:#000000;fill-opacity:1"
         id="tspan14075-6-8-1-9-1">t<tspan
   style="font-size:65%;baseline-shift:sub"
   id="tspan1062">2</tspan></tspan></text><text
       xml:space="preserve"
       style="font-style:normal;font-variant:normal;font-weight:bold;font-stretch:normal;font-size:20px;font-family:'Source Sans Pro';-inkscape-font-specification:'Source Sans Pro, Bold';font-variant-ligatures:normal;font-variant-caps:normal;font-variant-numeric:normal;font-variant-east-asian:normal;text-align:start;text-anchor:start;fill:#000000;fill-opacity:1"
       x="336.65326"
       y="455.72559"
       id="text3484-8-7-3-1-9-2"><tspan
         sodipodi:role="line"
         x="336.65326"
         y="455.72559"
         style="font-style:normal;font-variant:normal;font-weight:bold;font-stretch:normal;font-size:20px;font-family:'Source Sans Pro';-inkscape-font-specification:'Source Sans Pro, Bold';font-variant-ligatures:normal;font-variant-caps:normal;font-variant-numeric:normal;font-variant-east-asian:normal;text-align:start;text-anchor:start;fill:#000000;fill-opacity:1"
         id="tspan14075-6-8-1-9">t<tspan
   style="font-size:65%;baseline-shift:sub"
   id="tspan1060">1</tspan></tspan></text><text
       xml:space="preserve"
       style="font-style:normal;font-variant:normal;font-weight:bold;font-stretch:normal;font-size:20px;font-family:'Source Sans Pro';-inkscape-font-specification:'Source Sans Pro, Bold';font-variant-ligatures:normal;font-variant-caps:normal;font-variant-numeric:normal;font-variant-east-asian:normal;text-align:start;text-anchor:start;fill:#000000;fill-opacity:1"
       x="177.02356"
       y="455.72559"
       id="text3484-8-7-3-1-9"><tspan
         sodipodi:role="line"
         x="177.02356"
         y="455.72559"
         style="font-style:normal;font-variant:normal;font-weight:bold;font-stretch:normal;font-size:20px;font-family:'Source Sans Pro';-inkscape-font-specification:'Source Sans Pro, Bold';font-variant-ligatures:normal;font-variant-caps:normal;font-variant-numeric:normal;font-variant-east-asian:normal;text-align:start;text-anchor:start;fill:#000000;fill-opacity:1"
         id="tspan14075-6-8-1">t<tspan
   style="font-size:65%;baseline-shift:sub"
   id="tspan1058">0</tspan></tspan></text><text
       xml:space="preserve"
       style="font-style:normal;font-variant:normal;font-weight:bold;font-stretch:normal;font-size:20px;font-family:'Source Sans Pro';-inkscape-font-specification:'Source Sans Pro, Bold';font-variant-ligatures:normal;font-variant-caps:normal;font-variant-numeric:normal;font-variant-east-asian:normal;text-align:start;text-anchor:start;fill:#000000;fill-opacity:1"
       x="653.6275"
       y="455.72559"
       id="text3484-8-7-3-1-9-2-2-2"><tspan
         sodipodi:role="line"
         x="653.6275"
         y="455.72559"
         style="font-style:normal;font-variant:normal;font-weight:bold;font-stretch:normal;font-size:20px;font-family:'Source Sans Pro';-inkscape-font-specification:'Source Sans Pro, Bold';font-variant-ligatures:normal;font-variant-caps:normal;font-variant-numeric:normal;font-variant-east-asian:normal;text-align:start;text-anchor:start;fill:#000000;fill-opacity:1"
         id="tspan14075-6-8-1-9-1-8">t<tspan
   style="font-size:65%;baseline-shift:sub"
   id="tspan990">n</tspan></tspan></text><text
       xml:space="preserve"
       style="font-style:normal;font-variant:normal;font-weight:normal;font-stretch:normal;font-size:20px;font-family:'Source Sans Pro';-inkscape-font-specification:'Source Sans Pro, Normal';font-variant-ligatures:normal;font-variant-caps:normal;font-variant-numeric:normal;font-variant-east-asian:normal;text-align:start;text-anchor:start;display:inline;fill:#ffffff;fill-opacity:1"
       x="180.80809"
       y="235.95786"
       id="text3484-8-0"><tspan
         sodipodi:role="line"
         x="180.80809"
         y="235.95786"
         style="font-style:normal;font-variant:normal;font-weight:normal;font-stretch:normal;font-size:20px;font-family:'Source Sans Pro';-inkscape-font-specification:'Source Sans Pro, Normal';font-variant-ligatures:normal;font-variant-caps:normal;font-variant-numeric:normal;font-variant-east-asian:normal;text-align:start;text-anchor:start;fill:#ffffff"
         id="tspan631">Welchen Wert haben in der <tspan
   style="font-style:normal;font-variant:normal;font-weight:bold;font-stretch:normal;font-size:20px;font-family:'Source Sans Pro';-inkscape-font-specification:'Source Sans Pro, Bold';font-variant-ligatures:normal;font-variant-caps:normal;font-variant-numeric:normal;font-variant-east-asian:normal"
   id="tspan1226">Zukunft</tspan> geleistete Zahlungen <tspan
   style="font-style:normal;font-variant:normal;font-weight:bold;font-stretch:normal;font-size:20px;font-family:'Source Sans Pro';-inkscape-font-specification:'Source Sans Pro, Bold';font-variant-ligatures:normal;font-variant-caps:normal;font-variant-numeric:normal;font-variant-east-asian:normal"
   id="tspan964">heute</tspan> (Barwert)?</tspan></text><text
       xml:space="preserve"
       style="font-style:normal;font-variant:normal;font-weight:normal;font-stretch:normal;font-size:20px;font-family:'Source Sans Pro';-inkscape-font-specification:'Source Sans Pro, Normal';font-variant-ligatures:normal;font-variant-caps:normal;font-variant-numeric:normal;font-variant-east-asian:normal;text-align:start;text-anchor:start;display:inline;fill:#ffffff;fill-opacity:1"
       x="178.26982"
       y="654.95282"
       id="text3484-8"><tspan
         sodipodi:role="line"
         x="178.26982"
         y="654.95282"
         style="font-style:normal;font-variant:normal;font-weight:normal;font-stretch:normal;font-size:20px;font-family:'Source Sans Pro';-inkscape-font-specification:'Source Sans Pro, Normal';font-variant-ligatures:normal;font-variant-caps:normal;font-variant-numeric:normal;font-variant-east-asian:normal;text-align:start;text-anchor:start;fill:#ffffff"
         id="tspan629">Welchen Wert haben <tspan
   style="font-style:normal;font-variant:normal;font-weight:bold;font-stretch:normal;font-size:20px;font-family:'Source Sans Pro';-inkscape-font-specification:'Source Sans Pro, Bold';font-variant-ligatures:normal;font-variant-caps:normal;font-variant-numeric:normal;font-variant-east-asian:normal"
   id="tspan1229">heute</tspan> geleistete Zahlungen in der<tspan
   style="font-style:normal;font-variant:normal;font-weight:bold;font-stretch:normal;font-size:20px;font-family:'Source Sans Pro';-inkscape-font-specification:'Source Sans Pro, Bold';font-variant-ligatures:normal;font-variant-caps:normal;font-variant-numeric:normal;font-variant-east-asian:normal"
   id="tspan966"> Zukunft</tspan> (Endwert)?</tspan></text><text
       xml:space="preserve"
       style="font-style:normal;font-variant:normal;font-weight:normal;font-stretch:normal;font-size:20px;font-family:'Source Sans Pro';-inkscape-font-specification:'Source Sans Pro, Normal';font-variant-ligatures:normal;font-variant-caps:normal;font-variant-numeric:normal;font-variant-east-asian:normal;text-align:start;text-anchor:start;fill:#000000;fill-opacity:1"
       x="543.18604"
       y="447.1637"
       id="text3484-8-7-3-1-9-1-1-6"><tspan
         sodipodi:role="line"
         x="543.18604"
         y="447.1637"
         style="font-style:normal;font-variant:normal;font-weight:normal;font-stretch:normal;font-size:20px;font-family:'Source Sans Pro';-inkscape-font-specification:'Source Sans Pro, Normal';font-variant-ligatures:normal;font-variant-caps:normal;font-variant-numeric:normal;font-variant-east-asian:normal;text-align:start;text-anchor:start;fill:#000000;fill-opacity:1"
         id="tspan14075-6-8-1-92-8-7">Periode 3</tspan></text><text
       xml:space="preserve"
       style="font-style:normal;font-variant:normal;font-weight:normal;font-stretch:normal;font-size:20px;font-family:'Source Sans Pro';-inkscape-font-specification:'Source Sans Pro, Normal';font-variant-ligatures:normal;font-variant-caps:normal;font-variant-numeric:normal;font-variant-east-asian:normal;text-align:start;text-anchor:start;fill:#000000;fill-opacity:1"
       x="383.38004"
       y="447.17215"
       id="text3484-8-7-3-1-9-1-1"><tspan
         sodipodi:role="line"
         x="383.38004"
         y="447.17215"
         style="font-style:normal;font-variant:normal;font-weight:normal;font-stretch:normal;font-size:20px;font-family:'Source Sans Pro';-inkscape-font-specification:'Source Sans Pro, Normal';font-variant-ligatures:normal;font-variant-caps:normal;font-variant-numeric:normal;font-variant-east-asian:normal;text-align:start;text-anchor:start;fill:#000000;fill-opacity:1"
         id="tspan14075-6-8-1-92-8">Periode 2</tspan></text><text
       xml:space="preserve"
       style="font-style:normal;font-variant:normal;font-weight:normal;font-stretch:normal;font-size:20px;font-family:'Source Sans Pro';-inkscape-font-specification:'Source Sans Pro, Normal';font-variant-ligatures:normal;font-variant-caps:normal;font-variant-numeric:normal;font-variant-east-asian:normal;text-align:start;text-anchor:start;fill:#000000;fill-opacity:1"
       x="225.52063"
       y="447.17215"
       id="text3484-8-7-3-1-9-1"><tspan
         sodipodi:role="line"
         x="225.52063"
         y="447.17215"
         style="font-style:normal;font-variant:normal;font-weight:normal;font-stretch:normal;font-size:20px;font-family:'Source Sans Pro';-inkscape-font-specification:'Source Sans Pro, Normal';font-variant-ligatures:normal;font-variant-caps:normal;font-variant-numeric:normal;font-variant-east-asian:normal;text-align:start;text-anchor:start;fill:#000000;fill-opacity:1"
         id="tspan14075-6-8-1-92">Periode 1</tspan></text><text
       xml:space="preserve"
       style="font-style:normal;font-variant:normal;font-weight:normal;font-stretch:normal;font-size:20px;font-family:'Source Sans Pro';-inkscape-font-specification:'Source Sans Pro, Normal';font-variant-ligatures:normal;font-variant-caps:normal;font-variant-numeric:normal;font-variant-east-asian:normal;text-align:start;text-anchor:start;fill:#8b8b8b;fill-opacity:1"
       x="162.9106"
       y="311.42603"
       id="text3484-8-7-3-1-92-8-5-1"><tspan
         sodipodi:role="line"
         x="162.9106"
         y="311.42603"
         style="font-style:normal;font-variant:normal;font-weight:normal;font-stretch:normal;font-size:20px;font-family:'Source Sans Pro';-inkscape-font-specification:'Source Sans Pro, Normal';font-variant-ligatures:normal;font-variant-caps:normal;font-variant-numeric:normal;font-variant-east-asian:normal;text-align:start;text-anchor:start;fill:#8b8b8b;fill-opacity:1"
         id="tspan3697-8">heute</tspan></text><text
       xml:space="preserve"
       style="font-style:normal;font-variant:normal;font-weight:normal;font-stretch:normal;font-size:20px;font-family:'Source Sans Pro';-inkscape-font-specification:'Source Sans Pro, Normal';font-variant-ligatures:normal;font-variant-caps:normal;font-variant-numeric:normal;font-variant-east-asian:normal;text-align:start;text-anchor:start;fill:#8b8b8b;fill-opacity:1"
       x="226.41872"
       y="311.47702"
       id="text3484-8-7-3-1-92-8-5-1-3"><tspan
         sodipodi:role="line"
         x="226.41872"
         y="311.47702"
         style="font-style:normal;font-variant:normal;font-weight:normal;font-stretch:normal;font-size:20px;font-family:'Source Sans Pro';-inkscape-font-specification:'Source Sans Pro, Normal';font-variant-ligatures:normal;font-variant-caps:normal;font-variant-numeric:normal;font-variant-east-asian:normal;text-align:start;text-anchor:start;fill:#8b8b8b;fill-opacity:1"
         id="tspan3697-8-2">Zukunft</tspan></text></g><g
     inkscape:groupmode="layer"
     id="layer11"
     inkscape:label="text 19"
     style="display:inline"
     sodipodi:insensitive="true"><text
       xml:space="preserve"
       style="font-style:normal;font-variant:normal;font-weight:bold;font-stretch:normal;font-size:25.3333px;font-family:'Source Sans Pro';-inkscape-font-specification:'Source Sans Pro, Bold';font-variant-ligatures:normal;font-variant-caps:normal;font-variant-numeric:normal;font-variant-east-asian:normal;fill:#1e5b47;fill-opacity:1"
       x="433.29861"
       y="199.22287"
       id="text3484-6-7-7"
       inkscape:label="text3484-6-7-7"><tspan
         sodipodi:role="line"
         x="433.29861"
         y="199.22287"
         id="tspan3486-2-3-9">Abzinsung</tspan></text><text
       xml:space="preserve"
       style="font-style:normal;font-variant:normal;font-weight:bold;font-stretch:normal;font-size:25.3333px;font-family:'Source Sans Pro';-inkscape-font-specification:'Source Sans Pro, Bold';font-variant-ligatures:normal;font-variant-caps:normal;font-variant-numeric:normal;font-variant-east-asian:normal;text-align:center;text-anchor:middle;fill:#051a7b;fill-opacity:1"
       x="490.99551"
       y="618.87646"
       id="text3484-6-7-7-9"
       inkscape:label="text3484-6-7-7-9"><tspan
         x="490.99551"
         y="618.87646"
         sodipodi:role="line"
         id="tspan828">Aufzinsung</tspan></text></g><g
     inkscape:groupmode="layer"
     id="layer5"
     inkscape:label="headline 23"
     sodipodi:insensitive="true"><text
       xml:space="preserve"
       style="font-style:normal;font-variant:normal;font-weight:bold;font-stretch:normal;font-size:30.6667px;font-family:'Source Sans Pro';-inkscape-font-specification:'Source Sans Pro, Bold';font-variant-ligatures:normal;font-variant-caps:normal;font-variant-numeric:normal;font-variant-east-asian:normal;fill:#000000"
       x="120.65602"
       y="99.878487"
       id="text790"
       inkscape:label="headline"><tspan
         id="tspan788"
         x="120.65602"
         y="99.878487"
         sodipodi:role="line">Zins- und Zinseszinsrechnung</tspan></text></g></svg>
